<?xml version="1.0" standalone="no"?>
<!DOCTYPE svg PUBLIC "-//W3C//DTD SVG 20010904//EN"
 "http://www.w3.org/TR/2001/REC-SVG-20010904/DTD/svg10.dtd">
<svg version="1.0" xmlns="http://www.w3.org/2000/svg"
 width="1200.000000pt" height="1200.000000pt" viewBox="0 0 1200.000000 1200.000000"
 preserveAspectRatio="xMidYMid meet">

<g transform="translate(0.000000,1200.000000) scale(0.100000,-0.100000)"
fill="#000000" stroke="none">
<path d="M5015 3337 c-106 -51 -117 -92 -119 -447 -1 -322 6 -362 73 -423 64
-57 177 -61 226 -7 24 27 43 25 76 -6 21 -20 34 -25 53 -20 l26 6 0 254 c0
222 -2 255 -16 260 -9 3 -56 6 -104 6 -81 0 -90 -2 -101 -21 -16 -31 -5 -106
20 -133 30 -32 31 -166 2 -195 -20 -20 -55 -19 -68 2 -10 17 -12 488 -2 529
11 43 42 59 67 35 8 -9 17 -39 20 -69 3 -29 10 -56 16 -60 13 -9 128 -10 150
-2 31 12 11 154 -32 232 -42 74 -192 105 -287 59z"/>
<path d="M5739 3353 c-66 -5 -73 -14 -84 -109 -9 -80 -24 -134 -36 -134 -14 0
-18 13 -33 118 -8 51 -20 99 -26 107 -19 22 -156 21 -164 -1 -3 -9 5 -62 20
-118 14 -55 34 -139 45 -186 11 -47 25 -103 31 -125 30 -110 37 -171 38 -307
0 -169 0 -168 90 -168 91 0 91 -1 89 170 -1 130 3 164 26 257 14 60 35 146 46
193 11 47 29 119 40 161 24 97 24 126 0 139 -11 5 -21 9 -23 8 -2 -1 -28 -3
-59 -5z"/>
<path d="M6255 3342 c-106 -51 -152 -182 -108 -307 14 -37 43 -75 119 -155
121 -127 136 -152 132 -223 -3 -51 -4 -52 -36 -55 -27 -3 -34 1 -43 25 -6 15
-8 47 -4 69 9 59 -9 74 -90 74 -95 0 -95 0 -95 -86 0 -141 57 -231 160 -253
111 -24 194 -2 241 64 56 78 60 291 7 369 -12 17 -68 79 -125 137 -106 109
-119 133 -90 173 20 28 53 12 68 -32 18 -56 26 -62 88 -62 83 0 95 12 88 89
-6 73 -39 128 -96 162 -52 31 -162 37 -216 11z"/>
<path d="M6770 3345 c-50 -23 -79 -53 -106 -110 -23 -49 -24 -56 -24 -350 0
-283 1 -303 21 -340 11 -22 36 -54 55 -72 90 -80 271 -62 337 35 24 35 26 45
28 164 2 152 -1 158 -78 158 -88 0 -93 -6 -93 -106 0 -95 -10 -124 -43 -124
-45 0 -47 9 -47 285 0 220 2 264 16 283 19 27 28 28 54 2 16 -16 20 -33 20
-95 0 -86 6 -93 85 -93 83 0 85 2 85 131 0 104 -2 115 -25 150 -42 60 -98 90
-180 94 -49 2 -81 -1 -105 -12z"/>
<path d="M7827 3350 c-49 -15 -98 -61 -123 -114 -23 -50 -24 -57 -24 -340 0
-287 0 -289 25 -345 47 -103 142 -148 259 -122 62 14 103 43 138 99 23 37 23
40 23 368 l0 331 -29 41 c-52 76 -170 112 -269 82z m105 -177 c17 -15 18 -37
18 -283 0 -193 -3 -269 -12 -278 -18 -18 -56 -14 -68 7 -6 12 -10 118 -10 273
0 213 2 257 16 276 18 26 31 28 56 5z"/>
<path d="M2978 3343 c-17 -4 -18 -34 -18 -453 l0 -448 23 -6 c43 -11 342 -7
355 6 7 7 12 40 12 80 0 82 -11 91 -103 86 -34 -1 -68 1 -74 5 -14 9 -19 160
-7 191 5 12 21 16 73 16 39 0 72 5 79 12 7 7 12 40 12 80 0 62 -2 69 -22 77
-13 5 -46 6 -73 4 -68 -7 -77 5 -73 99 l3 73 78 5 c54 3 81 10 87 20 14 22 12
134 -2 148 -8 8 -60 12 -173 11 -88 -1 -168 -3 -177 -6z"/>
<path d="M3422 3338 c-9 -9 -12 -123 -12 -450 0 -422 1 -438 19 -448 25 -13
144 -13 157 0 7 7 9 65 6 164 -3 115 -2 155 8 161 19 12 25 -6 55 -163 15 -81
32 -153 37 -159 13 -16 131 -17 159 -3 18 10 19 26 19 448 0 327 -3 441 -12
450 -17 17 -154 16 -165 0 -4 -7 -6 -77 -4 -154 2 -90 -1 -144 -8 -148 -17
-11 -29 25 -50 153 -12 67 -26 131 -31 142 -9 16 -22 19 -88 19 -47 0 -83 -5
-90 -12z"/>
<path d="M3956 3334 c-3 -9 -6 -210 -6 -448 0 -323 3 -435 12 -444 8 -8 61
-12 173 -12 112 0 165 4 173 12 16 16 16 140 0 156 -7 7 -41 12 -83 12 -42 0
-76 5 -83 12 -16 16 -16 170 0 186 7 7 40 12 78 12 38 0 71 5 78 12 15 15 16
144 2 153 -6 4 -36 6 -66 6 -31 0 -67 4 -80 9 -22 9 -24 15 -24 78 0 40 5 73
12 80 7 7 41 12 85 12 61 0 74 3 83 19 14 27 13 134 -2 149 -8 8 -62 12 -179
12 -143 0 -168 -2 -173 -16z"/>
<path d="M4401 3336 c-15 -18 -14 -860 1 -888 7 -15 22 -18 76 -18 40 0 73 5
80 12 8 8 12 67 12 199 0 150 3 189 14 198 21 17 52 -2 61 -36 4 -16 5 -100 4
-188 -2 -88 0 -166 4 -172 10 -16 130 -18 158 -3 18 10 19 23 19 186 0 180 -7
223 -47 266 -17 19 -20 12 34 87 28 39 25 231 -5 287 -38 75 -66 84 -244 84
-123 0 -158 -3 -167 -14z m237 -172 c43 -30 22 -154 -27 -154 -30 0 -41 22
-41 85 0 81 21 102 68 69z"/>
<path d="M7163 3333 c-11 -22 -9 -875 1 -891 8 -14 134 -16 155 -3 10 7 13 48
12 200 l-2 191 27 10 c20 8 32 7 48 -3 20 -14 21 -21 17 -200 -3 -178 -2 -186
17 -196 28 -15 149 -14 158 1 9 14 9 882 0 897 -4 6 -37 11 -81 11 -98 0 -99
-3 -93 -173 5 -139 0 -157 -46 -157 -42 0 -47 19 -45 168 0 78 -2 146 -6 151
-3 6 -39 11 -80 11 -61 0 -76 -3 -82 -17z"/>
<path d="M8215 3340 c-4 -6 -6 -209 -6 -452 0 -350 3 -443 13 -449 7 -5 83 -9
169 -9 179 0 189 4 189 78 0 63 -24 82 -105 82 -55 0 -66 3 -75 21 -8 14 -11
129 -9 368 1 191 -1 353 -5 359 -9 15 -162 16 -171 2z"/>
<path d="M8640 3331 c-5 -11 -10 -41 -10 -66 0 -77 9 -85 95 -85 104 0 104 5
14 -222 -11 -26 -19 -52 -19 -58 0 -7 -7 -26 -15 -43 -8 -18 -21 -52 -29 -77
-8 -25 -24 -70 -37 -100 -16 -40 -22 -78 -24 -138 -2 -114 -5 -112 205 -112
116 0 170 4 178 12 16 16 16 130 0 146 -7 7 -44 12 -95 12 -111 0 -111 0 -46
150 9 19 19 49 24 65 4 17 19 59 32 95 14 36 31 81 38 100 26 73 62 156 75
171 9 9 14 39 14 76 0 90 -7 93 -219 93 -158 0 -171 -1 -181 -19z"/>
</g>
</svg>
